<svg width="32" height="32" fill="none" xmlns="http://www.w3.org/2000/svg"><path d="M10.668 16a5.333 5.333 0 1 1 10.666-.001A5.333 5.333 0 0 1 10.668 16Zm-2.883 0A8.216 8.216 0 0 0 16 24.216a8.216 8.216 0 1 0 0-16.432A8.216 8.216 0 0 0 7.785 16Zm14.837-8.542a1.92 1.92 0 1 0 3.84.002 1.92 1.92 0 0 0-3.84-.002ZM9.536 29.024c-1.56-.071-2.408-.331-2.971-.55a4.973 4.973 0 0 1-1.84-1.198 4.936 4.936 0 0 1-1.197-1.839c-.22-.563-.48-1.411-.55-2.971-.078-1.687-.094-2.193-.094-6.466s.017-4.778.093-6.466c.071-1.56.333-2.406.55-2.971.292-.747.638-1.28 1.198-1.84a4.931 4.931 0 0 1 1.84-1.197c.563-.22 1.411-.48 2.971-.55 1.687-.078 2.194-.094 6.465-.094 4.27 0 4.778.017 6.466.093 1.56.071 2.406.333 2.971.55.747.29 1.28.638 1.84 1.198.561.56.907 1.093 1.198 1.84.22.563.479 1.411.55 2.971.078 1.688.093 2.193.093 6.466s-.015 4.778-.093 6.466c-.071 1.56-.332 2.408-.55 2.971a4.958 4.958 0 0 1-1.197 1.84c-.56.558-1.094.905-1.84 1.196-.564.22-1.412.48-2.972.55-1.687.078-2.193.094-6.466.094s-4.779-.016-6.465-.093ZM9.404.097C7.7.174 6.537.445 5.52.84a7.848 7.848 0 0 0-2.834 1.846A7.817 7.817 0 0 0 .84 5.52C.445 6.537.174 7.7.097 9.404.018 11.11 0 11.654 0 16c0 4.345.018 4.89.097 6.596.077 1.704.348 2.867.743 3.884a7.82 7.82 0 0 0 1.846 2.834A7.867 7.867 0 0 0 5.52 31.16c1.019.395 2.18.666 3.884.743C11.11 31.981 11.655 32 16 32c4.345 0 4.89-.018 6.596-.097 1.704-.077 2.867-.348 3.884-.743a7.868 7.868 0 0 0 2.835-1.846 7.838 7.838 0 0 0 1.845-2.834c.396-1.017.667-2.18.743-3.884.078-1.707.096-2.25.096-6.596 0-4.345-.018-4.89-.096-6.596-.077-1.704-.347-2.868-.743-3.884a7.868 7.868 0 0 0-1.845-2.834A7.829 7.829 0 0 0 26.483.84C25.464.445 24.3.173 22.599.097 20.893.019 20.347 0 16.002 0c-4.345 0-4.891.018-6.598.097Z" fill="url('#paint0_radial_268_242')"/><defs><radialGradient id="paint0_radial_268_242" cx="0" cy="0" r="1" gradientUnits="userSpaceOnUse" gradientTransform="translate(4.252 32.151) scale(41.775)"><stop offset=".09" stop-color="#FA8F21"/><stop offset=".78" stop-color="#D82D7E"/></radialGradient></defs></svg>