<svg version="1.0" xmlns="http://www.w3.org/2000/svg" width="346.667" height="346.667" viewBox="0 0 260 260"><path d="M115 .7c-1.4.2-6.1 1.1-10.5 2C50.9 13.2 9.2 57.2 1.3 111.5c-1 6.6-1 28.4-.1 36 .4 3.3 1.5 8.7 2.3 12 .9 3.3 1.7 6.7 1.9 7.5.1.8.6 2.4 1 3.5s2.2 5.5 3.8 9.8c3.4 8.6 10.8 21.4 17 29.2 21.6 27.2 49.4 43.5 84 49.3 8.4 1.4 34.8.7 43.8-1.2 26.8-5.7 49.1-17.7 67.2-36.2 20-20.5 31.7-43.6 36.3-71.9 1.3-8 1.4-33 .1-39-.4-1.7-1.1-5.5-1.7-8.5-4.1-20.8-16.6-44.2-32.4-61.2C205 20.1 178.9 6.3 149.7 1.3 145.8.7 118.4.2 115 .7z"/></svg>