<svg aria-hidden="true" style="width:0;height:0;position:absolute;overflow:hidden" xmlns="http://www.w3.org/2000/svg"><defs><symbol id="pig" viewBox="0 0 32 32"><path fill="none" stroke="#004aad" style="stroke:var(--color1,#004aad)" stroke-linejoin="round" stroke-linecap="round" stroke-width="1.6" d="M20.802 14.134v.017M4.423 9.764a5 5 0 1 1 7.749-2.26l.011-.035m10.285-5.001v6.338a10.09 10.09 0 0 1 4.408 5.258l.022.07h2.235c.921 0 1.667.746 1.667 1.667 0 0 0 0 0 0v3.333c0 .921-.746 1.667-1.667 1.667v0h-2.236a10.03 10.03 0 0 1-2.764 4.122v3.378a2.5 2.5 0 1 1-5 0v0-.972c-.5.088-1.076.138-1.663.138H10.796c-.588 0-1.163-.05-1.723-.147l.06.009v.972a2.5 2.5 0 1 1-5 0v0-3.334l.002-.045a9.981 9.981 0 0 1-3.336-7.456c0-5.523 4.477-10 10-10H14.966l7.502-5z"/></symbol><symbol id="cert" viewBox="0 0 27 32"><path fill="none" stroke="#004aad" style="stroke:var(--color1,#004aad)" stroke-linejoin="round" stroke-linecap="round" stroke-width="1.62" d="M18.355.81v6.396a1.6 1.6 0 0 0 1.595 1.599h6.38M18.354.81H7.19c-.881 0-1.679.358-2.256.936h0A3.192 3.192 0 0 0 4 4.006v4.798M18.355.81l7.974 7.995m0 0v17.588a3.2 3.2 0 0 1-.934 2.261 3.174 3.174 0 0 1-2.256.937h-7.975M3.203 23.195.81 31.19l4.785-2.398 4.784 2.398-2.392-7.995m2.392-4.797a4.791 4.791 0 0 1-4.785 4.797c-2.641 0-4.784-2.148-4.784-4.797s2.142-4.797 4.785-4.797a4.792 4.792 0 0 1 4.785 4.797z"/></symbol><symbol id="check" viewBox="0 0 32 32"><path fill="none" stroke="#004aad" style="stroke:var(--color1,#004aad)" stroke-linejoin="round" stroke-linecap="round" stroke-width="1.62" d="m10.919 15.983 3.376 3.376 6.752-6.752M4.167 7.881a3.713 3.713 0 0 1 3.714-3.713h1.688a3.701 3.701 0 0 0 2.616-1.08l1.181-1.182C14.039 1.23 14.97.811 15.999.811s1.961.419 2.633 1.095l1.182 1.182a3.701 3.701 0 0 0 2.617 1.08h1.688a3.714 3.714 0 0 1 3.714 3.714V9.57a3.71 3.71 0 0 0 1.08 2.616l1.182 1.182c.676.673 1.095 1.604 1.095 2.633s-.419 1.961-1.095 2.633l-1.182 1.182a3.701 3.701 0 0 0-1.08 2.617v1.688a3.714 3.714 0 0 1-3.714 3.714v0h-1.688a3.701 3.701 0 0 0-2.616 1.08l-1.181 1.181c-.673.676-1.604 1.095-2.633 1.095s-1.961-.419-2.633-1.095l-1.182-1.182a3.701 3.701 0 0 0-2.617-1.08H7.881a3.714 3.714 0 0 1-3.714-3.714v0-1.688a3.701 3.701 0 0 0-1.08-2.616l-1.182-1.181C1.229 17.962.81 17.031.81 16.002s.419-1.961 1.095-2.633l1.182-1.182a3.701 3.701 0 0 0 1.08-2.617V7.882z"/></symbol><symbol id="time" viewBox="0 0 32 32"><path fill="none" stroke="#004aad" style="stroke:var(--color1,#004aad)" stroke-linejoin="round" stroke-linecap="round" stroke-width="1.62" d="M16 12.203v5.696h3.92M6.2.81.81 4.607M25.8.81l5.39 3.797m-1.47 13.292c0 7.34-6.143 13.291-13.72 13.291S2.28 25.24 2.28 17.899c0-7.34 6.143-13.291 13.72-13.291s13.72 5.95 13.72 13.291z"/></symbol><symbol id="phone" viewBox="0 0 19 19"><path d="M11.389 1.294A.752.752 0 0 1 12.32.76a8.372 8.372 0 0 1 5.918 5.918.752.752 0 0 1-.533.932.723.723 0 0 1-.2.029.76.76 0 0 1-.732-.57 6.908 6.908 0 0 0-4.843-4.844.752.752 0 0 1-.542-.932Zm-.248 3.872a3.844 3.844 0 0 1 2.693 2.693.751.751 0 0 0 .732.57.61.61 0 0 0 .19-.028.752.752 0 0 0 .543-.932A5.31 5.31 0 0 0 11.531 3.7a.76.76 0 1 0-.39 1.465Zm7.85 9.181A5.348 5.348 0 0 1 13.7 19C6.146 19 0 12.854 0 5.3A5.347 5.347 0 0 1 4.652.01a1.55 1.55 0 0 1 1.59.913l1.912 4.462a1.513 1.513 0 0 1-.133 1.437L6.44 9.238a7.279 7.279 0 0 0 3.35 3.33l2.387-1.589a1.484 1.484 0 0 1 1.437-.123l4.462 1.903a1.551 1.551 0 0 1 .914 1.588Zm-1.513-.19-4.462-1.903-2.379 1.59a1.522 1.522 0 0 1-1.494.104 8.8 8.8 0 0 1-4.072-4.053A1.522 1.522 0 0 1 5.166 8.4l1.59-2.417-1.913-4.462A3.806 3.806 0 0 0 1.523 5.3 12.188 12.188 0 0 0 13.7 17.478a3.806 3.806 0 0 0 3.777-3.32Z" fill="#004AAD"/></symbol><symbol id="burger" viewBox="0 0 29 20"><path d="M2 2h25M2 10h25M2 18h25" stroke="#004AAD" stroke-width="3" stroke-linecap="round"/></symbol><symbol id="cross" viewBox="0 0 22 22"><path d="M21.5.517a1.66 1.66 0 0 0-2.35 0L11 8.65 2.85.5A1.662 1.662 0 1 0 .5 2.85L8.65 11 .5 19.15a1.662 1.662 0 0 0 2.35 2.35L11 13.35l8.15 8.15a1.662 1.662 0 0 0 2.35-2.35L13.35 11l8.15-8.15a1.67 1.67 0 0 0 0-2.333Z" fill="#004AAD"/></symbol></defs></svg>