<svg width="32" height="32" fill="none" xmlns="http://www.w3.org/2000/svg"><path d="M16 0A15.998 15.998 0 0 0 0 16a16.005 16.005 0 0 0 16 16 15.998 15.998 0 0 0 16-16A16.005 16.005 0 0 0 16 0Z" fill="url('#paint0_linear_268_240')"/><path d="M7.168 16.027c4.565-1.976 7.608-3.278 9.129-3.907 4.349-1.797 5.252-2.11 5.841-2.12.13-.002.418.03.607.181.156.128.2.3.222.421.02.121.047.397.025.613-.235 2.46-1.255 8.428-1.774 11.183-.217 1.166-.65 1.557-1.069 1.595-.91.083-1.6-.597-2.48-1.17-1.377-.898-2.155-1.456-3.493-2.332-1.546-1.012-.543-1.569.338-2.477.23-.238 4.236-3.859 4.312-4.187.01-.041.02-.194-.073-.275-.09-.081-.225-.053-.323-.031-.14.03-2.338 1.476-6.604 4.336-.624.427-1.19.634-1.698.624-.558-.012-1.634-.314-2.434-.573-.978-.316-1.758-.484-1.69-1.022.034-.28.423-.566 1.164-.859Z" fill="#fff"/><defs><linearGradient id="paint0_linear_268_240" x1="16" y1="0" x2="16" y2="32" gradientUnits="userSpaceOnUse"><stop stop-color="#2AABEE"/><stop offset="1" stop-color="#229ED9"/></linearGradient></defs></svg>