<svg aria-hidden="true" style="position: absolute; width: 0; height: 0; overflow: hidden;" version="1.1" xmlns="http://www.w3.org/2000/svg" xmlns:xlink="http://www.w3.org/1999/xlink">
<defs>


<symbol id="pig" viewBox="0 0 32 32">
<path fill="none" stroke="#004aad" style="stroke: var(--color1, #004aad)" stroke-linejoin="round" stroke-linecap="round" stroke-miterlimit="4" stroke-width="1.6" d="M20.802 14.134v0.017M4.423 9.764c-1.193-0.923-1.953-2.355-1.953-3.964 0-2.761 2.239-5 5-5s5 2.239 5 5c0 0.598-0.105 1.172-0.298 1.704l0.011-0.035M22.468 2.468v6.338c2.048 1.2 3.605 3.048 4.408 5.258l0.022 0.070h2.235c0.921 0 1.667 0.746 1.667 1.667 0 0 0 0 0 0v-0 3.333c0 0.921-0.746 1.667-1.667 1.667v0h-2.236c-0.56 1.583-1.512 3-2.764 4.122v3.378c0 1.381-1.119 2.5-2.5 2.5s-2.5-1.119-2.5-2.5v0-0.972c-0.5 0.088-1.076 0.138-1.663 0.138-0.001 0-0.002 0-0.003 0h-6.667c-0.001 0-0.002 0-0.004 0-0.588 0-1.163-0.050-1.723-0.147l0.060 0.009v0.972c0 1.381-1.119 2.5-2.5 2.5s-2.5-1.119-2.5-2.5v0-3.334l0.002-0.045c-2.051-1.839-3.336-4.497-3.336-7.456 0-5.523 4.477-10 10-10 0 0 0.001 0 0.001 0h4.166l7.502-5z"></path>
</symbol>
<symbol id="cert" viewBox="0 0 27 32">
<path fill="none" stroke="#004aad" style="stroke: var(--color1, #004aad)" stroke-linejoin="round" stroke-linecap="round" stroke-miterlimit="4" stroke-width="1.6203" d="M18.355 0.81v6.396c0 0.424 0.168 0.83 0.467 1.13 0.288 0.289 0.687 0.468 1.128 0.469h6.38M18.354 0.81h-11.164c-0.881 0-1.679 0.358-2.256 0.936l-0 0c-0.577 0.579-0.934 1.378-0.934 2.26 0 0 0 0.001 0 0.001v-0 4.797M18.355 0.81l7.974 7.995M26.329 8.805v17.588c0 0.849-0.336 1.662-0.934 2.261-0.577 0.579-1.374 0.937-2.256 0.937h-7.975M3.203 23.195l-2.393 7.995 4.785-2.398 4.784 2.398-2.392-7.995M10.379 18.398c0 2.649-2.142 4.797-4.785 4.797-2.641 0-4.784-2.148-4.784-4.797s2.142-4.797 4.785-4.797c2.642 0 4.785 2.148 4.785 4.797z"></path>
</symbol>
<symbol id="check" viewBox="0 0 32 32">
<path fill="none" stroke="#004aad" style="stroke: var(--color1, #004aad)" stroke-linejoin="round" stroke-linecap="round" stroke-miterlimit="4" stroke-width="1.6203" d="M10.919 15.983l3.376 3.376 6.752-6.752M4.167 7.881c0-2.051 1.663-3.713 3.714-3.713h1.688c1.021-0.001 1.946-0.413 2.616-1.080l1.181-1.182c0.673-0.676 1.604-1.095 2.633-1.095s1.961 0.419 2.633 1.095l1.182 1.182c0.671 0.667 1.596 1.080 2.617 1.080h1.688c2.051 0 3.714 1.663 3.714 3.714v0 1.688c0 0.979 0.388 1.921 1.080 2.616l1.182 1.182c0.676 0.673 1.095 1.604 1.095 2.633s-0.419 1.961-1.095 2.633l-1.182 1.182c-0.667 0.671-1.080 1.596-1.080 2.617v1.688c0 2.051-1.663 3.714-3.714 3.714v0h-1.688c-1.021 0.001-1.946 0.413-2.616 1.080l-1.181 1.181c-0.673 0.676-1.604 1.095-2.633 1.095s-1.961-0.419-2.633-1.095l-1.182-1.182c-0.671-0.667-1.596-1.080-2.617-1.080h-1.688c-2.051 0-3.714-1.663-3.714-3.714v0-1.688c-0.001-1.021-0.413-1.946-1.080-2.616l-1.182-1.181c-0.676-0.673-1.095-1.604-1.095-2.633s0.419-1.961 1.095-2.633l1.182-1.182c0.667-0.671 1.080-1.596 1.080-2.617v-1.688z"></path>
</symbol>
<symbol id="time" viewBox="0 0 32 32">
<path fill="none" stroke="#004aad" style="stroke: var(--color1, #004aad)" stroke-linejoin="round" stroke-linecap="round" stroke-miterlimit="4" stroke-width="1.6203" d="M16 12.203v5.696h3.92M6.2 0.81l-5.39 3.797M25.8 0.81l5.39 3.797M29.72 17.899c0 7.34-6.143 13.291-13.72 13.291s-13.72-5.95-13.72-13.291c0-7.34 6.143-13.291 13.72-13.291s13.72 5.95 13.72 13.291z"></path>
</symbol>
<symbol id='phone' viewBox="0 0 19 19">
<path d="M11.3886 1.29388C11.4139 1.19712 11.4583 1.10639 11.5191 1.027C11.58 0.947614 11.656 0.881163 11.7429 0.831543C11.8297 0.781922 11.9256 0.750131 12.0248 0.738031C12.1241 0.725931 12.2248 0.733767 12.321 0.761078C13.7399 1.14162 15.0337 1.88879 16.0724 2.92755C17.1112 3.96631 17.8584 5.26009 18.2389 6.67898C18.2662 6.77519 18.2741 6.87588 18.262 6.97516C18.2499 7.07444 18.2181 7.1703 18.1685 7.25714C18.1188 7.34398 18.0524 7.42003 17.973 7.48086C17.8936 7.54169 17.8029 7.58606 17.7061 7.61138C17.6412 7.63019 17.5739 7.63979 17.5063 7.63992C17.3383 7.63895 17.1754 7.58244 17.0429 7.47918C16.9103 7.37592 16.8157 7.23172 16.7737 7.06906C16.4572 5.91049 15.844 4.85447 14.9948 4.00521C14.1455 3.15595 13.0895 2.54281 11.9309 2.22628C11.8333 2.20201 11.7416 2.15839 11.6611 2.09801C11.5807 2.03763 11.5132 1.96171 11.4626 1.87477C11.412 1.78782 11.3794 1.6916 11.3667 1.59182C11.354 1.49204 11.3615 1.39073 11.3886 1.29388ZM11.1413 5.1662C11.7853 5.34249 12.3722 5.68349 12.8444 6.15563C13.3165 6.62776 13.6575 7.21474 13.8338 7.85875C13.8743 8.02222 13.9685 8.16735 14.1014 8.27087C14.2342 8.37439 14.398 8.43029 14.5664 8.42961C14.6309 8.43024 14.6952 8.4206 14.7567 8.40106C14.8543 8.37679 14.946 8.33317 15.0265 8.27279C15.1069 8.21241 15.1745 8.1365 15.225 8.04955C15.2756 7.9626 15.3082 7.86639 15.3209 7.76661C15.3336 7.66683 15.3262 7.56551 15.299 7.46866C15.0587 6.56434 14.5837 5.73958 13.9221 5.07794C13.2604 4.4163 12.4357 3.94128 11.5313 3.701C11.4321 3.66483 11.3263 3.64973 11.2209 3.65666C11.1154 3.66359 11.0126 3.69239 10.9189 3.74125C10.8252 3.7901 10.7427 3.85793 10.6767 3.94041C10.6106 4.0229 10.5625 4.11823 10.5353 4.22034C10.5081 4.32245 10.5025 4.42911 10.5188 4.53351C10.535 4.63792 10.5729 4.73779 10.6299 4.82676C10.6869 4.91574 10.7618 4.99187 10.8498 5.05031C10.9379 5.10875 11.0371 5.14822 11.1413 5.1662ZM18.9906 14.3475C18.8222 15.6323 18.1931 16.8123 17.2201 17.6681C16.2471 18.5238 14.9964 18.9971 13.7006 19C6.14624 19 0 12.8538 0 5.2994C0.00285653 4.00361 0.476166 2.75294 1.33193 1.77992C2.18769 0.80691 3.36768 0.17776 4.65249 0.00944749C4.98002 -0.0268677 5.3106 0.04209 5.59629 0.206321C5.88199 0.370551 6.10794 0.621516 6.24138 0.922821L8.15376 5.38503C8.25296 5.61665 8.29273 5.86937 8.26947 6.12026C8.24621 6.37115 8.16065 6.61226 8.02056 6.82169L6.44118 9.23832C7.15636 10.6897 8.33477 11.8614 9.79022 12.5683L12.1783 10.9794C12.3875 10.8384 12.6292 10.753 12.8806 10.7314C13.132 10.7098 13.3847 10.7526 13.615 10.8558L18.0772 12.7586C18.3785 12.8921 18.6294 13.118 18.7937 13.4037C18.9579 13.6894 19.0269 14.02 18.9906 14.3475ZM17.4778 14.1572L13.0156 12.2544L10.637 13.8432C10.4181 13.9879 10.1656 14.0736 9.90388 14.0919C9.64216 14.1103 9.38014 14.0607 9.14325 13.9479C7.37068 13.0905 5.93686 11.6633 5.07112 9.89481C4.95698 9.65872 4.90576 9.39714 4.92243 9.13544C4.9391 8.87373 5.02309 8.62077 5.16627 8.40106L6.75516 5.98443L4.84278 1.52222C3.9246 1.64025 3.08093 2.08891 2.46972 2.78418C1.85851 3.47945 1.52168 4.37367 1.52229 5.2994C1.52481 8.52852 2.80869 11.6247 5.09202 13.908C7.37535 16.1913 10.4715 17.4752 13.7006 17.4777C14.6263 17.4783 15.5205 17.1415 16.2158 16.5303C16.9111 15.9191 17.3597 15.0754 17.4778 14.1572Z" fill="#004AAD"/>
</symbol>
<symbol id='burger' viewBox="0 0 29 20"  >
<path d="M2 2H27M2 10H27M2 18H27" stroke="#004AAD" stroke-width="3" stroke-linecap="round"/>
</symbol>
<symbol id='cross'  viewBox="0 0 22 22" >
<path d="M21.5004 0.516673C21.3462 0.362167 21.163 0.239588 20.9614 0.155952C20.7598 0.0723165 20.5437 0.0292662 20.3254 0.0292662C20.1071 0.0292662 19.891 0.0723165 19.6893 0.155952C19.4877 0.239588 19.3046 0.362167 19.1504 0.516673L11.0004 8.65001L2.85037 0.500006C2.69607 0.345703 2.51289 0.223303 2.31128 0.139795C2.10967 0.0562864 1.89359 0.0133057 1.67537 0.0133057C1.45716 0.0133057 1.24107 0.0562864 1.03947 0.139795C0.83786 0.223303 0.654676 0.345703 0.500372 0.500006C0.346069 0.654309 0.223669 0.837494 0.140161 1.0391C0.0566526 1.24071 0.0136719 1.45679 0.0136719 1.67501C0.0136719 1.89322 0.0566526 2.10931 0.140161 2.31091C0.223669 2.51252 0.346069 2.6957 0.500372 2.85001L8.65037 11L0.500372 19.15C0.346069 19.3043 0.223669 19.4875 0.140161 19.6891C0.0566526 19.8907 0.0136719 20.1068 0.0136719 20.325C0.0136719 20.5432 0.0566526 20.7593 0.140161 20.9609C0.223669 21.1625 0.346069 21.3457 0.500372 21.5C0.654676 21.6543 0.83786 21.7767 1.03947 21.8602C1.24107 21.9437 1.45716 21.9867 1.67537 21.9867C1.89359 21.9867 2.10967 21.9437 2.31128 21.8602C2.51289 21.7767 2.69607 21.6543 2.85037 21.5L11.0004 13.35L19.1504 21.5C19.3047 21.6543 19.4879 21.7767 19.6895 21.8602C19.8911 21.9437 20.1072 21.9867 20.3254 21.9867C20.5436 21.9867 20.7597 21.9437 20.9613 21.8602C21.1629 21.7767 21.3461 21.6543 21.5004 21.5C21.6547 21.3457 21.7771 21.1625 21.8606 20.9609C21.9441 20.7593 21.9871 20.5432 21.9871 20.325C21.9871 20.1068 21.9441 19.8907 21.8606 19.6891C21.7771 19.4875 21.6547 19.3043 21.5004 19.15L13.3504 11L21.5004 2.85001C22.1337 2.21667 22.1337 1.15001 21.5004 0.516673Z" fill="#004AAD"/>
</symbol>


</defs>
</svg>
