<svg aria-hidden="true" style="position: absolute; width: 0; height: 0; overflow: hidden;" version="1.1" xmlns="http://www.w3.org/2000/svg" xmlns:xlink="http://www.w3.org/1999/xlink">
<defs>


<symbol id="pig" viewBox="0 0 32 32">
<path fill="none" stroke="#004aad" style="stroke: var(--color1, #004aad)" stroke-linejoin="round" stroke-linecap="round" stroke-miterlimit="4" stroke-width="1.6" d="M20.802 14.134v0.017M4.423 9.764c-1.193-0.923-1.953-2.355-1.953-3.964 0-2.761 2.239-5 5-5s5 2.239 5 5c0 0.598-0.105 1.172-0.298 1.704l0.011-0.035M22.468 2.468v6.338c2.048 1.2 3.605 3.048 4.408 5.258l0.022 0.070h2.235c0.921 0 1.667 0.746 1.667 1.667 0 0 0 0 0 0v-0 3.333c0 0.921-0.746 1.667-1.667 1.667v0h-2.236c-0.56 1.583-1.512 3-2.764 4.122v3.378c0 1.381-1.119 2.5-2.5 2.5s-2.5-1.119-2.5-2.5v0-0.972c-0.5 0.088-1.076 0.138-1.663 0.138-0.001 0-0.002 0-0.003 0h-6.667c-0.001 0-0.002 0-0.004 0-0.588 0-1.163-0.050-1.723-0.147l0.060 0.009v0.972c0 1.381-1.119 2.5-2.5 2.5s-2.5-1.119-2.5-2.5v0-3.334l0.002-0.045c-2.051-1.839-3.336-4.497-3.336-7.456 0-5.523 4.477-10 10-10 0 0 0.001 0 0.001 0h4.166l7.502-5z"></path>
</symbol>
<symbol id="cert" viewBox="0 0 27 32">
<path fill="none" stroke="#004aad" style="stroke: var(--color1, #004aad)" stroke-linejoin="round" stroke-linecap="round" stroke-miterlimit="4" stroke-width="1.6203" d="M18.355 0.81v6.396c0 0.424 0.168 0.83 0.467 1.13 0.288 0.289 0.687 0.468 1.128 0.469h6.38M18.354 0.81h-11.164c-0.881 0-1.679 0.358-2.256 0.936l-0 0c-0.577 0.579-0.934 1.378-0.934 2.26 0 0 0 0.001 0 0.001v-0 4.797M18.355 0.81l7.974 7.995M26.329 8.805v17.588c0 0.849-0.336 1.662-0.934 2.261-0.577 0.579-1.374 0.937-2.256 0.937h-7.975M3.203 23.195l-2.393 7.995 4.785-2.398 4.784 2.398-2.392-7.995M10.379 18.398c0 2.649-2.142 4.797-4.785 4.797-2.641 0-4.784-2.148-4.784-4.797s2.142-4.797 4.785-4.797c2.642 0 4.785 2.148 4.785 4.797z"></path>
</symbol>
<symbol id="check" viewBox="0 0 32 32">
<path fill="none" stroke="#004aad" style="stroke: var(--color1, #004aad)" stroke-linejoin="round" stroke-linecap="round" stroke-miterlimit="4" stroke-width="1.6203" d="M10.919 15.983l3.376 3.376 6.752-6.752M4.167 7.881c0-2.051 1.663-3.713 3.714-3.713h1.688c1.021-0.001 1.946-0.413 2.616-1.080l1.181-1.182c0.673-0.676 1.604-1.095 2.633-1.095s1.961 0.419 2.633 1.095l1.182 1.182c0.671 0.667 1.596 1.080 2.617 1.080h1.688c2.051 0 3.714 1.663 3.714 3.714v0 1.688c0 0.979 0.388 1.921 1.080 2.616l1.182 1.182c0.676 0.673 1.095 1.604 1.095 2.633s-0.419 1.961-1.095 2.633l-1.182 1.182c-0.667 0.671-1.080 1.596-1.080 2.617v1.688c0 2.051-1.663 3.714-3.714 3.714v0h-1.688c-1.021 0.001-1.946 0.413-2.616 1.080l-1.181 1.181c-0.673 0.676-1.604 1.095-2.633 1.095s-1.961-0.419-2.633-1.095l-1.182-1.182c-0.671-0.667-1.596-1.080-2.617-1.080h-1.688c-2.051 0-3.714-1.663-3.714-3.714v0-1.688c-0.001-1.021-0.413-1.946-1.080-2.616l-1.182-1.181c-0.676-0.673-1.095-1.604-1.095-2.633s0.419-1.961 1.095-2.633l1.182-1.182c0.667-0.671 1.080-1.596 1.080-2.617v-1.688z"></path>
</symbol>
<symbol id="time" viewBox="0 0 32 32">
<path fill="none" stroke="#004aad" style="stroke: var(--color1, #004aad)" stroke-linejoin="round" stroke-linecap="round" stroke-miterlimit="4" stroke-width="1.6203" d="M16 12.203v5.696h3.92M6.2 0.81l-5.39 3.797M25.8 0.81l5.39 3.797M29.72 17.899c0 7.34-6.143 13.291-13.72 13.291s-13.72-5.95-13.72-13.291c0-7.34 6.143-13.291 13.72-13.291s13.72 5.95 13.72 13.291z"></path>
</symbol>
</defs>
</svg>
