<svg width="19" height="19" viewBox="0 0 19 19" fill="none" xmlns="http://www.w3.org/2000/svg">
<path d="M11.3886 1.29388C11.4139 1.19712 11.4583 1.10639 11.5191 1.027C11.58 0.947614 11.656 0.881163 11.7429 0.831543C11.8297 0.781922 11.9256 0.750131 12.0248 0.738031C12.1241 0.725931 12.2248 0.733767 12.321 0.761078C13.7399 1.14162 15.0337 1.88879 16.0724 2.92755C17.1112 3.96631 17.8584 5.26009 18.2389 6.67898C18.2662 6.77519 18.2741 6.87588 18.262 6.97516C18.2499 7.07444 18.2181 7.1703 18.1685 7.25714C18.1188 7.34398 18.0524 7.42003 17.973 7.48086C17.8936 7.54169 17.8029 7.58606 17.7061 7.61138C17.6412 7.63019 17.5739 7.63979 17.5063 7.63992C17.3383 7.63895 17.1754 7.58244 17.0429 7.47918C16.9103 7.37592 16.8157 7.23172 16.7737 7.06906C16.4572 5.91049 15.844 4.85447 14.9948 4.00521C14.1455 3.15595 13.0895 2.54281 11.9309 2.22628C11.8333 2.20201 11.7416 2.15839 11.6611 2.09801C11.5807 2.03763 11.5132 1.96171 11.4626 1.87477C11.412 1.78782 11.3794 1.6916 11.3667 1.59182C11.354 1.49204 11.3615 1.39073 11.3886 1.29388ZM11.1413 5.1662C11.7853 5.34249 12.3722 5.68349 12.8444 6.15563C13.3165 6.62776 13.6575 7.21474 13.8338 7.85875C13.8743 8.02222 13.9685 8.16735 14.1014 8.27087C14.2342 8.37439 14.398 8.43029 14.5664 8.42961C14.6309 8.43024 14.6952 8.4206 14.7567 8.40106C14.8543 8.37679 14.946 8.33317 15.0265 8.27279C15.1069 8.21241 15.1745 8.1365 15.225 8.04955C15.2756 7.9626 15.3082 7.86639 15.3209 7.76661C15.3336 7.66683 15.3262 7.56551 15.299 7.46866C15.0587 6.56434 14.5837 5.73958 13.9221 5.07794C13.2604 4.4163 12.4357 3.94128 11.5313 3.701C11.4321 3.66483 11.3263 3.64973 11.2209 3.65666C11.1154 3.66359 11.0126 3.69239 10.9189 3.74125C10.8252 3.7901 10.7427 3.85793 10.6767 3.94041C10.6106 4.0229 10.5625 4.11823 10.5353 4.22034C10.5081 4.32245 10.5025 4.42911 10.5188 4.53351C10.535 4.63792 10.5729 4.73779 10.6299 4.82676C10.6869 4.91574 10.7618 4.99187 10.8498 5.05031C10.9379 5.10875 11.0371 5.14822 11.1413 5.1662ZM18.9906 14.3475C18.8222 15.6323 18.1931 16.8123 17.2201 17.6681C16.2471 18.5238 14.9964 18.9971 13.7006 19C6.14624 19 0 12.8538 0 5.2994C0.00285653 4.00361 0.476166 2.75294 1.33193 1.77992C2.18769 0.80691 3.36768 0.17776 4.65249 0.00944749C4.98002 -0.0268677 5.3106 0.04209 5.59629 0.206321C5.88199 0.370551 6.10794 0.621516 6.24138 0.922821L8.15376 5.38503C8.25296 5.61665 8.29273 5.86937 8.26947 6.12026C8.24621 6.37115 8.16065 6.61226 8.02056 6.82169L6.44118 9.23832C7.15636 10.6897 8.33477 11.8614 9.79022 12.5683L12.1783 10.9794C12.3875 10.8384 12.6292 10.753 12.8806 10.7314C13.132 10.7098 13.3847 10.7526 13.615 10.8558L18.0772 12.7586C18.3785 12.8921 18.6294 13.118 18.7937 13.4037C18.9579 13.6894 19.0269 14.02 18.9906 14.3475ZM17.4778 14.1572L13.0156 12.2544L10.637 13.8432C10.4181 13.9879 10.1656 14.0736 9.90388 14.0919C9.64216 14.1103 9.38014 14.0607 9.14325 13.9479C7.37068 13.0905 5.93686 11.6633 5.07112 9.89481C4.95698 9.65872 4.90576 9.39714 4.92243 9.13544C4.9391 8.87373 5.02309 8.62077 5.16627 8.40106L6.75516 5.98443L4.84278 1.52222C3.9246 1.64025 3.08093 2.08891 2.46972 2.78418C1.85851 3.47945 1.52168 4.37367 1.52229 5.2994C1.52481 8.52852 2.80869 11.6247 5.09202 13.908C7.37535 16.1913 10.4715 17.4752 13.7006 17.4777C14.6263 17.4783 15.5205 17.1415 16.2158 16.5303C16.9111 15.9191 17.3597 15.0754 17.4778 14.1572Z" fill="#004AAD"/>
</svg>
