<svg aria-hidden="true" style="position: absolute; width: 0; height: 0; overflow: hidden;" version="1.1" xmlns="http://www.w3.org/2000/svg" xmlns:xlink="http://www.w3.org/1999/xlink">
<defs>
<symbol id="icon-icon-alarm" viewBox="0 0 32 32">
<path fill="none" stroke="#004aad" style="stroke: var(--color1, #004aad)" stroke-linejoin="round" stroke-linecap="round" stroke-miterlimit="4" stroke-width="1.6203" d="M16 12.203v5.696h3.92M6.2 0.81l-5.39 3.797M25.8 0.81l5.39 3.797M29.72 17.899c0 7.34-6.143 13.291-13.72 13.291s-13.72-5.951-13.72-13.291c0-7.34 6.143-13.291 13.72-13.291s13.72 5.951 13.72 13.291z"></path>
</symbol>
<symbol id="icon-icon-burger" viewBox="0 0 32 32">
<path fill="none" stroke="#004aad" style="stroke: var(--color1, #004aad)" stroke-linejoin="miter" stroke-linecap="round" stroke-miterlimit="4" stroke-width="3.3103" d="M2.207 7.172h27.586M2.207 16h27.586M2.207 24.828h27.586"></path>
</symbol>
<symbol id="icon-icon-cross" viewBox="0 0 32 32">
<path fill="#004aad" style="fill: var(--color1, #004aad)" d="M31.273 0.752c-0.224-0.225-0.491-0.403-0.784-0.525s-0.608-0.184-0.925-0.184c-0.318 0-0.632 0.063-0.925 0.184s-0.56 0.3-0.784 0.525l-11.855 11.83-11.855-11.855c-0.224-0.224-0.491-0.402-0.784-0.524s-0.608-0.184-0.925-0.184c-0.317 0-0.632 0.063-0.925 0.184s-0.56 0.299-0.784 0.524c-0.224 0.224-0.402 0.491-0.524 0.784s-0.184 0.608-0.184 0.925c0 0.317 0.063 0.632 0.184 0.925s0.299 0.56 0.524 0.784l11.855 11.855-11.855 11.855c-0.224 0.224-0.402 0.491-0.524 0.784s-0.184 0.608-0.184 0.925c0 0.317 0.063 0.632 0.184 0.925s0.299 0.56 0.524 0.784c0.224 0.224 0.491 0.402 0.784 0.524s0.608 0.184 0.925 0.184c0.317 0 0.632-0.063 0.925-0.184s0.56-0.299 0.784-0.524l11.855-11.855 11.855 11.855c0.224 0.224 0.491 0.402 0.784 0.524s0.608 0.184 0.925 0.184c0.317 0 0.632-0.063 0.925-0.184s0.56-0.299 0.784-0.524c0.224-0.224 0.402-0.491 0.524-0.784s0.184-0.608 0.184-0.925c0-0.317-0.063-0.632-0.184-0.925s-0.299-0.56-0.524-0.784l-11.855-11.855 11.855-11.855c0.921-0.921 0.921-2.473 0-3.394z"></path>
</symbol>
<symbol id="icon-icon-hide" viewBox="0 0 32 32">
<path fill="#004aad" style="fill: var(--color1, #004aad)" d="M15.999 24.933c-0.356 0-0.7-0.067-1.032-0.2-0.334-0.133-0.612-0.311-0.835-0.533l-12.267-12.267c-0.489-0.489-0.733-1.111-0.733-1.867s0.244-1.378 0.733-1.867c0.489-0.489 1.111-0.733 1.867-0.733s1.378 0.244 1.867 0.733l10.4 10.4 10.4-10.4c0.489-0.489 1.111-0.733 1.867-0.733s1.378 0.244 1.867 0.733c0.489 0.489 0.733 1.111 0.733 1.867s-0.244 1.378-0.733 1.867l-12.267 12.267c-0.267 0.267-0.556 0.455-0.867 0.565-0.311 0.112-0.644 0.168-1 0.168z"></path>
</symbol>
<symbol id="icon-icon-instagram" viewBox="0 0 32 32">
<path d="M10.668 16c0-2.945 2.387-5.334 5.333-5.334s5.334 2.388 5.334 5.334-2.388 5.334-5.334 5.334c-2.945 0-5.333-2.388-5.333-5.334zM7.785 16c0 4.538 3.678 8.216 8.216 8.216s8.216-3.678 8.216-8.216-3.678-8.216-8.216-8.216c-4.538 0-8.216 3.678-8.216 8.216zM22.622 7.458c-0 1.060 0.859 1.92 1.919 1.921s1.92-0.859 1.921-1.919-0.859-1.92-1.919-1.921c-1.060 0-1.92 0.859-1.921 1.919zM9.536 29.024c-1.56-0.071-2.408-0.331-2.971-0.55-0.747-0.291-1.28-0.637-1.84-1.197s-0.907-1.092-1.197-1.839c-0.22-0.563-0.479-1.411-0.55-2.971-0.078-1.686-0.093-2.193-0.093-6.466s0.017-4.778 0.093-6.466c0.071-1.56 0.333-2.406 0.55-2.971 0.291-0.747 0.637-1.28 1.197-1.84s1.092-0.907 1.84-1.197c0.563-0.22 1.411-0.479 2.971-0.55 1.687-0.078 2.193-0.093 6.464-0.093s4.778 0.017 6.466 0.093c1.56 0.071 2.407 0.333 2.971 0.55 0.747 0.29 1.28 0.637 1.84 1.197s0.906 1.093 1.197 1.84c0.22 0.563 0.48 1.411 0.55 2.971 0.078 1.688 0.093 2.193 0.093 6.466s-0.015 4.778-0.093 6.466c-0.071 1.56-0.332 2.408-0.55 2.971-0.291 0.747-0.637 1.28-1.197 1.839s-1.093 0.906-1.84 1.197c-0.563 0.22-1.411 0.48-2.971 0.55-1.687 0.078-2.193 0.093-6.466 0.093s-4.778-0.015-6.464-0.093zM9.404 0.097c-1.703 0.078-2.867 0.348-3.884 0.743-1.053 0.408-1.944 0.956-2.834 1.845s-1.437 1.782-1.846 2.834c-0.396 1.017-0.666 2.18-0.743 3.884-0.079 1.706-0.097 2.251-0.097 6.596s0.018 4.891 0.097 6.597c0.078 1.703 0.348 2.866 0.743 3.884 0.408 1.052 0.955 1.946 1.846 2.834s1.782 1.436 2.834 1.846c1.018 0.396 2.18 0.666 3.884 0.743 1.707 0.078 2.252 0.097 6.597 0.097s4.891-0.018 6.597-0.097c1.703-0.078 2.867-0.348 3.884-0.743 1.052-0.41 1.944-0.956 2.834-1.846s1.436-1.782 1.846-2.834c0.395-1.017 0.667-2.18 0.743-3.884 0.078-1.707 0.096-2.251 0.096-6.596s-0.018-4.89-0.096-6.596c-0.078-1.703-0.348-2.867-0.743-3.884-0.41-1.052-0.956-1.944-1.846-2.834s-1.782-1.437-2.833-1.845c-1.018-0.396-2.182-0.667-3.884-0.743-1.706-0.078-2.252-0.097-6.597-0.097s-4.891 0.018-6.598 0.097z"></path>
</symbol>
<symbol id="icon-icon-left" viewBox="0 0 32 32">
<path fill="#d9e4f3" style="fill: var(--color2, #d9e4f3)" d="M16 32c-8.837 0-16-7.163-16-16s7.163-16 16-16c8.837 0 16 7.163 16 16s-7.163 16-16 16z"></path>
<path fill="#004aad" style="fill: var(--color1, #004aad)" d="M10.353 15.529c0-0.169 0.032-0.332 0.097-0.49s0.151-0.291 0.259-0.396l5.949-5.824c0.237-0.232 0.539-0.348 0.905-0.348s0.668 0.116 0.905 0.348c0.237 0.232 0.356 0.528 0.356 0.886s-0.119 0.654-0.356 0.886l-5.043 4.938 5.043 4.938c0.237 0.232 0.356 0.528 0.356 0.886s-0.119 0.654-0.356 0.886c-0.237 0.232-0.539 0.348-0.905 0.348s-0.668-0.116-0.905-0.348l-5.949-5.824c-0.129-0.127-0.221-0.264-0.274-0.411s-0.082-0.306-0.082-0.475z"></path>
</symbol>
<symbol id="icon-icon-phone" viewBox="0 0 32 32">
<path fill="#004aad" style="fill: var(--color1, #004aad)" d="M19.181 2.179c0.043-0.163 0.117-0.316 0.22-0.449s0.231-0.246 0.377-0.329c0.146-0.084 0.308-0.137 0.475-0.157s0.337-0.007 0.499 0.039c2.39 0.641 4.569 1.899 6.318 3.649s3.008 3.929 3.649 6.318c0.046 0.162 0.059 0.332 0.039 0.499s-0.074 0.329-0.158 0.475c-0.083 0.146-0.195 0.274-0.329 0.377s-0.287 0.177-0.449 0.22c-0.109 0.032-0.223 0.048-0.337 0.048-0.283-0.002-0.557-0.097-0.781-0.271s-0.383-0.417-0.453-0.691c-0.533-1.951-1.566-3.73-2.996-5.16s-3.209-2.463-5.16-2.996c-0.164-0.041-0.319-0.114-0.454-0.216s-0.249-0.23-0.334-0.376-0.14-0.308-0.161-0.477c-0.021-0.168-0.009-0.339 0.037-0.502zM18.764 8.701c1.085 0.297 2.073 0.871 2.868 1.666s1.369 1.784 1.666 2.868c0.068 0.275 0.227 0.52 0.451 0.694s0.499 0.269 0.783 0.267c0.109 0.001 0.217-0.015 0.32-0.048 0.164-0.041 0.319-0.114 0.454-0.216s0.249-0.229 0.334-0.376c0.085-0.147 0.14-0.309 0.161-0.477s0.009-0.339-0.037-0.502c-0.405-1.523-1.205-2.912-2.319-4.026s-2.503-1.914-4.027-2.319c-0.167-0.061-0.345-0.086-0.523-0.075s-0.351 0.060-0.509 0.142-0.297 0.197-0.408 0.335c-0.111 0.139-0.192 0.299-0.238 0.471s-0.055 0.352-0.028 0.527c0.027 0.176 0.091 0.344 0.187 0.494s0.222 0.278 0.371 0.377c0.148 0.098 0.315 0.165 0.491 0.195zM31.984 24.164c-0.283 2.164-1.343 4.151-2.982 5.593s-3.745 2.238-5.928 2.243c-12.723 0-23.075-10.352-23.075-23.075 0.005-2.182 0.802-4.289 2.243-5.928s3.429-2.698 5.593-2.982c0.552-0.061 1.108 0.055 1.59 0.332s0.862 0.699 1.086 1.207l3.221 7.515c0.167 0.39 0.234 0.816 0.195 1.238s-0.183 0.829-0.419 1.181l-2.66 4.070c1.204 2.444 3.189 4.418 5.64 5.608l4.022-2.676c0.352-0.238 0.759-0.381 1.183-0.418s0.849 0.036 1.237 0.209l7.515 3.205c0.507 0.225 0.93 0.605 1.207 1.087s0.393 1.038 0.332 1.59zM29.436 23.844l-7.515-3.205-4.006 2.676c-0.369 0.244-0.794 0.388-1.235 0.419s-0.882-0.053-1.281-0.243c-2.985-1.444-5.4-3.848-6.858-6.826-0.192-0.398-0.278-0.838-0.25-1.279s0.17-0.867 0.411-1.237l2.676-4.070-3.221-7.515c-1.546 0.199-2.967 0.954-3.997 2.125s-1.597 2.677-1.596 4.236c0.004 5.439 2.167 10.653 6.012 14.499s9.060 6.008 14.499 6.012c1.559 0.001 3.065-0.566 4.236-1.596s1.927-2.45 2.125-3.997z"></path>
</symbol>
<symbol id="icon-icon-pig" viewBox="0 0 32 32">
<path fill="none" stroke="#004aad" style="stroke: var(--color1, #004aad)" stroke-linejoin="round" stroke-linecap="round" stroke-miterlimit="4" stroke-width="1.6" d="M20.802 14.334v0.017M4.423 9.964c-0.731-0.562-1.292-1.315-1.622-2.176s-0.415-1.796-0.247-2.703c0.169-0.906 0.584-1.749 1.202-2.433s1.412-1.186 2.296-1.447c0.884-0.261 1.823-0.273 2.714-0.034s1.698 0.719 2.332 1.388c0.634 0.669 1.072 1.5 1.263 2.402s0.13 1.839-0.178 2.708M22.468 2.668v6.338c2.063 1.194 3.633 3.082 4.43 5.328h2.235c0.442 0 0.866 0.176 1.179 0.488s0.488 0.736 0.488 1.179v3.333c0 0.442-0.176 0.866-0.488 1.179s-0.736 0.488-1.179 0.488h-2.237c-0.56 1.583-1.512 3-2.763 4.122v3.378c0 0.663-0.263 1.299-0.732 1.768s-1.105 0.732-1.768 0.732c-0.663 0-1.299-0.263-1.768-0.732s-0.732-1.105-0.732-1.768v-0.972c-0.551 0.092-1.108 0.139-1.667 0.138h-6.667c-0.558 0-1.116-0.046-1.667-0.138v0.972c0 0.663-0.263 1.299-0.732 1.768s-1.105 0.732-1.768 0.732c-0.663 0-1.299-0.263-1.768-0.732s-0.732-1.105-0.732-1.768v-3.333l0.002-0.045c-1.51-1.35-2.574-3.127-3.052-5.095s-0.347-4.035 0.375-5.927c0.723-1.892 2.003-3.52 3.671-4.669s3.646-1.764 5.671-1.764h4.167l7.502-5z"></path>
</symbol>
<symbol id="icon-icon-quality" viewBox="0 0 32 32">
<path fill="none" stroke="#004aad" style="stroke: var(--color1, #004aad)" stroke-linejoin="round" stroke-linecap="round" stroke-miterlimit="4" stroke-width="1.6" d="M10.983 15.983l3.334 3.334 6.668-6.668M4.315 7.982c0-0.973 0.386-1.905 1.074-2.593s1.62-1.074 2.593-1.074h1.667c0.968-0.001 1.897-0.384 2.584-1.067l1.167-1.167c0.341-0.343 0.746-0.615 1.192-0.8s0.925-0.281 1.408-0.281 0.962 0.096 1.408 0.281c0.446 0.186 0.851 0.458 1.192 0.8l1.167 1.167c0.687 0.683 1.617 1.067 2.584 1.067h1.667c0.973 0 1.905 0.386 2.593 1.074s1.074 1.62 1.074 2.593v1.667c0 0.967 0.383 1.897 1.067 2.584l1.167 1.167c0.343 0.341 0.615 0.746 0.8 1.192s0.281 0.925 0.281 1.408-0.096 0.962-0.281 1.408c-0.186 0.446-0.458 0.851-0.8 1.192l-1.167 1.167c-0.683 0.687-1.066 1.615-1.067 2.584v1.667c0 0.973-0.386 1.905-1.074 2.593s-1.62 1.074-2.593 1.074h-1.667c-0.968 0.001-1.897 0.384-2.584 1.067l-1.167 1.167c-0.341 0.343-0.746 0.615-1.192 0.8s-0.925 0.281-1.408 0.281-0.962-0.096-1.408-0.281c-0.446-0.186-0.851-0.458-1.192-0.8l-1.167-1.167c-0.687-0.683-1.615-1.066-2.584-1.067h-1.667c-0.973 0-1.905-0.386-2.593-1.074s-1.074-1.62-1.074-2.593v-1.667c-0.001-0.968-0.384-1.897-1.067-2.584l-1.167-1.167c-0.343-0.341-0.615-0.746-0.8-1.192s-0.281-0.925-0.281-1.408 0.096-0.962 0.281-1.408c0.186-0.446 0.458-0.851 0.8-1.192l1.167-1.167c0.683-0.687 1.066-1.615 1.067-2.584v-1.667z"></path>
</symbol>
<symbol id="icon-icon-right" viewBox="0 0 32 32">
<path fill="#d9e4f3" style="fill: var(--color2, #d9e4f3)" d="M16 32c8.837 0 16-7.163 16-16s-7.163-16-16-16c-8.837 0-16 7.163-16 16s7.163 16 16 16z"></path>
<path fill="#004aad" style="fill: var(--color1, #004aad)" d="M21.647 15.529c0-0.169-0.032-0.332-0.097-0.49s-0.151-0.291-0.259-0.396l-5.949-5.824c-0.237-0.232-0.539-0.348-0.905-0.348s-0.668 0.116-0.905 0.348c-0.237 0.232-0.356 0.528-0.356 0.886s0.119 0.654 0.356 0.886l5.043 4.938-5.043 4.938c-0.237 0.232-0.356 0.528-0.356 0.886s0.119 0.654 0.356 0.886c0.237 0.232 0.539 0.348 0.905 0.348s0.668-0.116 0.905-0.348l5.949-5.824c0.129-0.127 0.221-0.264 0.274-0.411s0.081-0.306 0.081-0.475z"></path>
</symbol>
<symbol id="icon-icon-sert" viewBox="0 0 32 32">
<path fill="none" stroke="#004aad" style="stroke: var(--color1, #004aad)" stroke-linejoin="round" stroke-linecap="round" stroke-miterlimit="4" stroke-width="1.6203" d="M20.785 0.81v6.396c0 0.424 0.168 0.831 0.467 1.131s0.705 0.468 1.128 0.468h6.38M20.785 0.81h-11.165c-0.846 0-1.657 0.337-2.256 0.937s-0.934 1.413-0.934 2.261v4.797M20.785 0.81l7.975 7.995M28.759 8.805v17.588c0 0.848-0.336 1.662-0.934 2.261s-1.41 0.937-2.256 0.937h-7.975M5.633 23.195l-2.392 7.995 4.785-2.398 4.785 2.398-2.392-7.995M12.81 18.398c0 2.649-2.142 4.797-4.785 4.797s-4.785-2.148-4.785-4.797c0-2.649 2.142-4.797 4.785-4.797s4.785 2.148 4.785 4.797z"></path>
</symbol>
<symbol id="icon-icon-telegram" viewBox="0 0 32 32">
<path fill="#2AABEE" style="fill: var(--color3, #2AABEE)" d="M16 0c-4.242 0-8.315 1.687-11.313 4.686-3.001 3.001-4.687 7.070-4.688 11.314 0 4.242 1.688 8.314 4.688 11.314 2.998 3 7.070 4.686 11.313 4.686s8.315-1.687 11.312-4.686c3-3 4.688-7.072 4.688-11.314s-1.688-8.314-4.688-11.314c-2.997-2.999-7.070-4.686-11.312-4.686z"></path>
<path fill="##2AABEE" style="fill: var(--color4, #fff)" d="M7.018 15.716c4.686-2.052 7.81-3.406 9.373-4.060 4.465-1.867 5.392-2.191 5.997-2.202 0.133-0.002 0.429 0.031 0.623 0.188 0.161 0.133 0.206 0.312 0.228 0.438 0.020 0.126 0.048 0.412 0.025 0.636-0.241 2.556-1.288 8.757-1.821 11.619-0.224 1.211-0.668 1.617-1.098 1.657-0.934 0.086-1.642-0.62-2.547-1.216-1.414-0.933-2.213-1.513-3.586-2.423-1.587-1.052-0.558-1.63 0.347-2.574 0.236-0.247 4.35-4.009 4.428-4.35 0.010-0.043 0.020-0.202-0.075-0.286-0.093-0.084-0.231-0.055-0.332-0.033-0.143 0.032-2.401 1.534-6.781 4.506-0.64 0.443-1.221 0.659-1.743 0.648-0.573-0.012-1.678-0.326-2.499-0.594-1.005-0.329-1.806-0.503-1.735-1.062 0.035-0.291 0.434-0.589 1.195-0.893z"></path>
</symbol>
</defs>
</svg>











