<svg xmlns="http://www.w3.org/2000/svg" aria-hidden="true" style="position:absolute;width:0;height:0;overflow:hidden"><defs><symbol id="icon-call" viewBox="0 0 32 32"><path fill="#004aad" d="M19.181 2.179a1.255 1.255 0 0 1 .597-.778 1.274 1.274 0 0 1 .974-.118c2.39.641 4.569 1.899 6.318 3.649s3.008 3.929 3.649 6.318a1.274 1.274 0 0 1-.119.974 1.264 1.264 0 0 1-.778.597 1.199 1.199 0 0 1-.337.048 1.287 1.287 0 0 1-1.234-.962 11.635 11.635 0 0 0-8.156-8.156 1.26 1.26 0 0 1-.949-1.069 1.27 1.27 0 0 1 .037-.502zm-.417 6.522a6.471 6.471 0 0 1 4.534 4.534 1.264 1.264 0 0 0 1.234.961c.109.001.217-.015.32-.048a1.26 1.26 0 0 0 .949-1.069 1.27 1.27 0 0 0-.037-.502 8.944 8.944 0 0 0-6.346-6.345 1.291 1.291 0 0 0-1.032.067 1.284 1.284 0 0 0-.674 1.333 1.275 1.275 0 0 0 .558.871c.148.098.315.165.491.195zm13.22 15.463A9.005 9.005 0 0 1 23.074 32C10.351 32-.001 21.648-.001 8.925A9.01 9.01 0 0 1 7.835.015a2.613 2.613 0 0 1 2.676 1.539l3.221 7.515a2.55 2.55 0 0 1-.224 2.419l-2.66 4.07a12.255 12.255 0 0 0 5.64 5.608l4.022-2.676a2.498 2.498 0 0 1 2.42-.209l7.515 3.205a2.615 2.615 0 0 1 1.539 2.677zm-2.548-.32-7.515-3.205-4.006 2.676a2.564 2.564 0 0 1-2.516.176 14.825 14.825 0 0 1-6.858-6.826 2.567 2.567 0 0 1 .161-2.516l2.676-4.07-3.221-7.515a6.413 6.413 0 0 0-5.593 6.361 20.529 20.529 0 0 0 20.511 20.511 6.407 6.407 0 0 0 6.361-5.593z" style="fill:var(--color1, #004aad)"/></symbol><symbol id="icon-insta" viewBox="0 0 32 32"><path d="M10.668 16a5.334 5.334 0 1 1 10.667 0 5.334 5.334 0 0 1-10.667 0zm-2.883 0c0 4.538 3.678 8.216 8.216 8.216s8.216-3.678 8.216-8.216-3.678-8.216-8.216-8.216A8.215 8.215 0 0 0 7.785 16zm14.837-8.542a1.921 1.921 0 0 0 3.84.002 1.92 1.92 0 0 0-3.84-.002zM9.536 29.024c-1.56-.071-2.408-.331-2.971-.55-.747-.291-1.28-.637-1.84-1.197s-.907-1.092-1.197-1.839c-.22-.563-.479-1.411-.55-2.971-.078-1.686-.093-2.193-.093-6.466s.017-4.778.093-6.466c.071-1.56.333-2.406.55-2.971.291-.747.637-1.28 1.197-1.84s1.092-.907 1.84-1.197c.563-.22 1.411-.479 2.971-.55 1.687-.078 2.193-.093 6.464-.093s4.778.017 6.466.093c1.56.071 2.407.333 2.971.55.747.29 1.28.637 1.84 1.197s.906 1.093 1.197 1.84c.22.563.48 1.411.55 2.971.078 1.688.093 2.193.093 6.466s-.015 4.778-.093 6.466c-.071 1.56-.332 2.408-.55 2.971-.291.747-.637 1.28-1.197 1.839s-1.093.906-1.84 1.197c-.563.22-1.411.48-2.971.55-1.687.078-2.193.093-6.466.093s-4.778-.015-6.464-.093zM9.404.097C7.701.175 6.537.445 5.52.84c-1.053.408-1.944.956-2.834 1.845S1.249 4.467.84 5.519C.444 6.536.174 7.699.097 9.403.018 11.109 0 11.654 0 15.999s.018 4.891.097 6.597c.078 1.703.348 2.866.743 3.884.408 1.052.955 1.946 1.846 2.834S4.468 30.75 5.52 31.16c1.018.396 2.18.666 3.884.743 1.707.078 2.252.097 6.597.097s4.891-.018 6.597-.097c1.703-.078 2.867-.348 3.884-.743 1.052-.41 1.944-.956 2.834-1.846s1.436-1.782 1.846-2.834c.395-1.017.667-2.18.743-3.884.078-1.707.096-2.251.096-6.596s-.018-4.89-.096-6.596c-.078-1.703-.348-2.867-.743-3.884-.41-1.052-.956-1.944-1.846-2.834S27.534 1.249 26.483.841C25.465.445 24.301.174 22.599.098 20.893.02 20.347.001 16.002.001s-4.891.018-6.598.097z"/></symbol><symbol id="icon-Logo" viewBox="0 0 32 32"><path d="M0 0h32v32H0V0z"/></symbol><symbol id="icon-telegram" viewBox="0 0 32 32"><path d="M16 0A16.003 16.003 0 0 0-.001 16 16.006 16.006 0 0 0 16 32a16.006 16.006 0 0 0 16-16A16.006 16.006 0 0 0 16 0z" style="fill:var(--color2, #000)"/><path fill="#fff" d="M7.018 15.716c4.686-2.052 7.81-3.406 9.373-4.06 4.465-1.867 5.392-2.191 5.997-2.202.133-.002.429.031.623.188a.692.692 0 0 1 .228.438c.02.126.048.412.025.636-.241 2.556-1.288 8.757-1.821 11.619-.224 1.211-.668 1.617-1.098 1.657-.934.086-1.642-.62-2.547-1.216-1.414-.933-2.213-1.513-3.586-2.423-1.587-1.052-.558-1.63.347-2.574.236-.247 4.35-4.009 4.428-4.35.01-.043.02-.202-.075-.286-.093-.084-.231-.055-.332-.033-.143.032-2.401 1.534-6.781 4.506-.64.443-1.221.659-1.743.648-.573-.012-1.678-.326-2.499-.594-1.005-.329-1.806-.503-1.735-1.062.035-.291.434-.589 1.195-.893z" style="fill:var(--color3, #fff)"/></symbol></defs></svg>